<svg xmlns="http://www.w3.org/2000/svg" width="63.137" height="187.589" viewBox="0 0 63.137 187.589">
  <path id="Path_362" data-name="Path 362" d="M522-885a146.919,146.919,0,0,1-16.2.2c-7.8-.3-13.2-.1-14,.5a13.729,13.729,0,0,1-4.7,1.7c-4.7.9-6.1,2.3-6.1,6.2,0,1.8-.4,3.6-1,3.9-.5.3-12.1.8-25.7,1-25.7.4-29.3.8-29.3,3.2,0,1.2,4.4,1.3,29,.8l29-.5,2.1,4.3a38.171,38.171,0,0,0,3.7,6c3.1,3.5.5,3.9-28.9,3.6-15.6-.1-30.2-.2-32.3-.3-4.9-.1-6,2.1-1.4,2.8,1.8.3,14.1.8,27.3,1.2s26.3.8,29.2.9c4,.2,5.6-.2,6.9-1.6,1.6-1.8,1.8-1.8,5.1,1.1,3.7,3.2,3.5,3.2,10.8,3.4a20.955,20.955,0,0,0,9.9-2.2c6.1-2.9,14.6-11,14.5-13.7-.1-3.6-5.3-11.9-8.2-13.3-1.7-.9-2.7-2-2.5-3,.8-4.3,15.9-1.4,23.2,4.4,2.8,2.3,3.6,3.6,3.6,6.2a11.406,11.406,0,0,0,1.2,5.2c1,1.5.8,3.2-1.1,8.8-2.5,7.7-5,10.3-15.1,16-4.7,2.6-6.4,3.1-12.3,3-5.1-.1-7.1-.6-8.4-2a6.445,6.445,0,0,0-4.2-1.8,22.334,22.334,0,0,1-7-2,25.31,25.31,0,0,0-5.4-2,5.861,5.861,0,0,1-2.8-1.6c-1.6-1.4-2-1.4-3.9-.1-2.1,1.4-2.1,1.4.7,3.3,5.7,3.7,17.5,9.3,23.1,10.9,8.4,2.5,22.3,1.4,27-2.2a15.062,15.062,0,0,0,4.2-4.9c1.1-2.9-1.8-2.7,32.7-2.4,28.5.2,32.3-.1,32.3-2.4,0-.9-6.6-1.2-28.7-1.4-19.6-.1-28.9-.4-29.1-1.2-.2-.6.3-2.2,1.2-3.5a11.329,11.329,0,0,0,1.6-5.4c0-6-1.4-5.8,29-5.6,15.4.1,28-.1,28-.5,0-2.2-8.2-3-29.6-3-24.8,0-31.9-1.1-28.8-4.2,1.4-1.4,1.2-2-1.6-6.1-3.5-5.3-6.9-7.9-12.2-9.6-2.1-.7-4-1.7-4.3-2.2C531.8-886.1,527.3-886.1,522-885Zm-9,6.5c.5,1.4,1.6,2.5,2.3,2.5,1.8,0,4.3,2.8,6.7,7.6,2.4,4.6,2.5,5.8.4,8.9-1.8,2.8-6.3,5.5-12.1,7.4-6.1,2-12.3.1-16.8-5.2-1.9-2.2-3.5-4.5-3.5-5s-1.4-3.2-3.1-6l-3-4.9,2.3-2.2c2.4-2.2,8.7-4.8,9.9-4a5.773,5.773,0,0,0,3.1-.5c1.2-.6,4.7-1,7.6-1C511.5-881,512.1-880.7,513-878.5ZM536-836a1,1,0,0,1-1,1,1.075,1.075,0,0,1-1-1,1,1,0,0,1,1-1A.945.945,0,0,1,536-836Z" transform="translate(870.526 639.544) rotate(-88)" fill="#ab651c"/>
</svg>
