<svg xmlns="http://www.w3.org/2000/svg" width="110.981" height="202.813" viewBox="0 0 110.981 202.813">
  <path id="Path_387" data-name="Path 387" d="M508.9-552.7a96.541,96.541,0,0,0-8.9,6.9c-5.9,5.1-10.6,6.8-19.6,6.8-3.2,0-11,.5-17.3,1.1-9.5.9-11.9,1.5-13.3,3.1a7.015,7.015,0,0,0-1.8,2.9c0,1.2,6.7,1.2,7.5-.1a1.461,1.461,0,0,1,1.8-.4c1.8.7,26.3-1.2,27.8-2.2a19.2,19.2,0,0,1,5.8-.9c2.5,0,4.6-.6,4.9-1.3a1.691,1.691,0,0,1,1.5-1.2c.8,0,.7.4-.1,1.2-1.4,1.4-1.6,9-.2,10.4.5.5,1.1,3.3,1.4,6.1.3,4.7.9,5.6,6.7,11.7,3.4,3.6,6.8,6.6,7.5,6.6a4.313,4.313,0,0,1,2.4,1.5c1.8,2.2,11.8,4.8,19.5,5a136.455,136.455,0,0,1,17.5,2.2c9.7,1.9,11,2,17,.6,8.8-2,16.4-5.7,21.5-10.4l4.2-3.9,22.6-.3c12.4-.1,22.9-.6,23.3-1,2.1-2.1-2.9-2.8-23.7-3.2-12.3-.2-26.5-.7-31.5-1-8-.6-9.8-.4-13.9,1.4l-4.6,2.1-2.2-2.4a20.214,20.214,0,0,0-4.2-3.4c-2.4-1.3-6-9.6-5.1-11.8.5-1.4,2.6-1.5,16.9-1,37.6,1.4,67.7,1.8,67.7.8,0-1.5-4.3-2.2-19.8-3.4-7.5-.5-16.6-1.2-20.1-1.5-4.2-.3-7.2,0-8.8.8-2,1.1-2.8,1.1-4.5,0-3.4-2.1-19.6-2.5-29.5-.6-10.7,2-16.5,4.2-22.2,8.3-5.2,3.8-7.1,3-7.1-2.7,0-3.8,4.4-12.4,7.6-15.1,4.2-3.5,19.9-7,31-7,9.4,0,12.9,1.6,19,8.3,4.8,5.4,7.6,5.5,4.8.2-4.6-8.9-11.7-12.5-24.6-12.5-5.1,0-11.1.5-13.3,1.1-12.2,3.1-12.5,3.2-15.2,1.2-7.4-5.2-7.6-5.3-16.3-5.2C514.2-554.8,511.8-554.4,508.9-552.7Zm18.4,3.7c8.4,1,9,2.1,3.4,7.1-3.1,2.7-4.7,4.9-4.7,6.4,0,1.3-.4,2.7-1,3-1.5.9-1.2,11.7.5,14.5a37.948,37.948,0,0,1,2.4,5c2.3,5.5,3.8,7.5,6.9,9.3,2.4,1.4,3.6,1.7,4.4.9s.1-2.2-2.5-5.2c-4.4-4.8-4.7-8.1-1.1-10.9a10.225,10.225,0,0,1,3.6-2.1,10.358,10.358,0,0,0,3.7-2.1c4.3-3.2,7.1-2.2,10,3.5a41.818,41.818,0,0,0,8.2,9.8l5.5,4.8,8.5-1.2c4.6-.6,9.1-1.8,10-2.5,2.1-1.7,6.9-1.7,6.9.1,0,.7-1.3,1.9-3,2.6a12.622,12.622,0,0,0-4.1,2.7c-2.5,2.9-15.2,7.3-21.4,7.3a18.415,18.415,0,0,1-6.9-1.5,13.064,13.064,0,0,0-4.5-1.5,31.9,31.9,0,0,1-5.6-1.5c-3.8-1.4-4.1-1.3-5.6.6-1.6,2.1-1.7,2.1-8.1.5a55.878,55.878,0,0,0-8-1.6c-6.1,0-21.2-12.8-22.2-18.9-.4-2-1.2-5.7-1.8-8.2-1.4-6-.4-11.2,3.3-15.3,3.9-4.5,10.5-7.7,14.4-6.9C520.2-550,524.1-549.4,527.3-549Z" transform="matrix(-0.259, -0.966, 0.966, -0.259, 701.924, 491.924)" fill="#ab651c"/>
</svg>
