<svg xmlns="http://www.w3.org/2000/svg" width="59.409" height="190.5" viewBox="0 0 59.409 190.5">
  <path id="Path_421" data-name="Path 421" d="M493-213.3a10.361,10.361,0,0,0-4.1,1.9,12.091,12.091,0,0,1-4.7,2c-2.4.5-3.2,1.2-3.2,2.8a8.241,8.241,0,0,1-1.3,4c-1.1,1.5-2,1.6-8,.6-8.1-1.3-28.6-1-29.4.3q-2.25,3.6,12.9,3a133.04,133.04,0,0,1,16.3.4l6,.8-.3,3.8c-.2,2.1.2,4.4.8,5.2,2.6,3.1,0,3.6-17.3,3.5-18.8,0-25.2.7-25.2,2.9,0,1.2,3.6,1.4,21.7,1.2l21.8-.3.9,2.5c.9,2.4,6,6.7,7.9,6.7a3.59,3.59,0,0,1,2,1.3c1.6,1.8,12.4,7,20.2,9.5,19.9,6.5,20.6,6.6,48,6.7,22.8,0,25.9-.2,28.8-1.8,3-1.6,4.9-1.8,15.5-1.2,13.1.6,21.8-.2,22.5-2.3.3-.9-2.5-1.2-11.5-1.2-6.6,0-12.3-.4-12.8-.9-.6-.5-3.9-1.2-7.5-1.5-11.2-1-18.3-2.2-24-4-3-1-6.1-2-6.8-2.2-3.2-.9-1.9-6.9,3.5-15.2,1.5-2.4,1.5-2.4,3.6-.4,4.5,4.1,27.3,9.3,40.7,9.2,6,0,16-2,16-3.2,0-.5-7.4-.8-16.4-.8-13.3,0-16.6-.3-17.6-1.5a4.29,4.29,0,0,0-2.2-1.5c-.5,0-3.4-2.7-6.5-6a57.563,57.563,0,0,0-9.8-8.6,31.059,31.059,0,0,1-6.1-4.5c-4.2-4.7-9.3-6.3-20.4-6.6-5.8-.2-14.8-.6-20.1-.9s-11.2-.1-13.2.4c-2.8.8-3.9.7-4.7-.3-1.3-1.5-9.6-4.6-11.9-4.4C496.2-213.8,494.4-213.5,493-213.3Zm12.7,6.6c.9.6,1.1,2.5.7,6.1-1,8.1.9,13.3,7,19.2,2.9,2.8,6.3,5.4,7.7,5.7,1.3.3,5.8,1.7,9.9,3.2a98.925,98.925,0,0,0,17.2,4c5.8.8,11.8,2.3,15.1,3.8,3.8,1.7,8.1,2.7,14.6,3.2,5,.4,9.1,1.1,9.1,1.6,0,2.2-8.2,3.1-25,2.5-25.4-.7-45.4-3.9-49.9-8a7.8,7.8,0,0,0-4.7-1.6,12.941,12.941,0,0,1-6.4-2.5,15.056,15.056,0,0,0-4.4-2.5c-1.8,0-10.6-8-10.6-9.6,0-.8-1.2-1.9-2.6-2.5-2.6-.9-2.7-1.2-2.2-7.2a32.9,32.9,0,0,1,2.7-10.4c2.2-4,4-5.2,10.6-6.6C497.3-208.9,504.2-207.9,505.7-206.7Zm29.7,2.6a4.965,4.965,0,0,1,1.6,3.4c0,2.8-2.9,14.8-4,16.9-1.4,2.6-1.2,5.8.4,5.8,2.5,0,3.7-2.7,5.9-14,1.5-7.8,2.7-11.4,3.8-12.1.9-.5,4.6-.5,8.3-.1,7.5.9,10.4,3,12.5,8.7,1.3,3.8,1.7,2.9-7.6,20.6-1.7,3.3-3.7,3.9-9.9,2.7-2.7-.5-6.5-1.2-8.4-1.5a14.43,14.43,0,0,1-5-1.7,18.541,18.541,0,0,0-5.7-2.4c-4.8-1.4-13.5-8.8-15.2-13-.7-1.6-1.1-5.3-.9-8.3.3-5.3.4-5.4,3.8-6C521.3-206.1,533.6-205.5,535.4-204.1Zm39.7,12.8c2.6,2.1,6,4.6,7.4,5.7,3.9,2.7,1.7,4-3.1,1.9-9.4-4.4-13.9-8.4-11.7-10.6C568.9-195.6,570.2-195,575.1-191.3Z" transform="translate(213.909 626) rotate(-90)" fill="#ab651c"/>
</svg>
