<svg xmlns="http://www.w3.org/2000/svg" width="130.885" height="202.649" viewBox="0 0 130.885 202.649">
  <g id="Group_302" data-name="Group 302" transform="translate(-762.826 1076.456) rotate(-68)">
    <path id="Path_460" data-name="Path 460" d="M508.9-552.7a96.541,96.541,0,0,0-8.9,6.9c-5.9,5.1-10.6,6.8-19.6,6.8-3.2,0-11,.5-17.3,1.1-9.5.9-11.9,1.5-13.3,3.1a7.015,7.015,0,0,0-1.8,2.9c0,1.2,6.7,1.2,7.5-.1a1.461,1.461,0,0,1,1.8-.4c1.8.7,26.3-1.2,27.8-2.2a19.2,19.2,0,0,1,5.8-.9c2.5,0,4.6-.6,4.9-1.3a1.691,1.691,0,0,1,1.5-1.2c.8,0,.7.4-.1,1.2-1.4,1.4-1.6,9-.2,10.4.5.5,1.1,3.3,1.4,6.1.3,4.7.9,5.6,6.7,11.7,3.4,3.6,6.8,6.6,7.5,6.6a4.313,4.313,0,0,1,2.4,1.5c1.8,2.2,11.8,4.8,19.5,5a136.455,136.455,0,0,1,17.5,2.2c9.7,1.9,11,2,17,.6,8.8-2,16.4-5.7,21.5-10.4l4.2-3.9,22.6-.3c12.4-.1,22.9-.6,23.3-1,2.1-2.1-2.9-2.8-23.7-3.2-12.3-.2-26.5-.7-31.5-1-8-.6-9.8-.4-13.9,1.4l-4.6,2.1-2.2-2.4a20.214,20.214,0,0,0-4.2-3.4c-2.4-1.3-6-9.6-5.1-11.8.5-1.4,2.6-1.5,16.9-1,37.6,1.4,67.7,1.8,67.7.8,0-1.5-4.3-2.2-19.8-3.4-7.5-.5-16.6-1.2-20.1-1.5-4.2-.3-7.2,0-8.8.8-2,1.1-2.8,1.1-4.5,0-3.4-2.1-19.6-2.5-29.5-.6-10.7,2-16.5,4.2-22.2,8.3-5.2,3.8-7.1,3-7.1-2.7,0-3.8,4.4-12.4,7.6-15.1,4.2-3.5,19.9-7,31-7,9.4,0,12.9,1.6,19,8.3,4.8,5.4,7.6,5.5,4.8.2-4.6-8.9-11.7-12.5-24.6-12.5-5.1,0-11.1.5-13.3,1.1-12.2,3.1-12.5,3.2-15.2,1.2-7.4-5.2-7.6-5.3-16.3-5.2C514.2-554.8,511.8-554.4,508.9-552.7Zm18.4,3.7c8.4,1,9,2.1,3.4,7.1-3.1,2.7-4.7,4.9-4.7,6.4,0,1.3-.4,2.7-1,3-1.5.9-1.2,11.7.5,14.5a37.948,37.948,0,0,1,2.4,5c2.3,5.5,3.8,7.5,6.9,9.3,2.4,1.4,3.6,1.7,4.4.9s.1-2.2-2.5-5.2c-4.4-4.8-4.7-8.1-1.1-10.9a10.225,10.225,0,0,1,3.6-2.1,10.358,10.358,0,0,0,3.7-2.1c4.3-3.2,7.1-2.2,10,3.5a41.818,41.818,0,0,0,8.2,9.8l5.5,4.8,8.5-1.2c4.6-.6,9.1-1.8,10-2.5,2.1-1.7,6.9-1.7,6.9.1,0,.7-1.3,1.9-3,2.6a12.622,12.622,0,0,0-4.1,2.7c-2.5,2.9-15.2,7.3-21.4,7.3a18.415,18.415,0,0,1-6.9-1.5,13.064,13.064,0,0,0-4.5-1.5,31.9,31.9,0,0,1-5.6-1.5c-3.8-1.4-4.1-1.3-5.6.6-1.6,2.1-1.7,2.1-8.1.5a55.878,55.878,0,0,0-8-1.6c-6.1,0-21.2-12.8-22.2-18.9-.4-2-1.2-5.7-1.8-8.2-1.4-6-.4-11.2,3.3-15.3,3.9-4.5,10.5-7.7,14.4-6.9C520.2-550,524.1-549.4,527.3-549Z" transform="translate(669.881 926)" fill="#ab651c"/>
    <path id="Intersection_2" data-name="Intersection 2" d="M15256.3,3026.1a17.182,17.182,0,0,0-5.467,2,8.083,8.083,0,0,1-3.781,1.515c-1.109,0-6.467,3.03-11.832,6.667-9.152,6.161-10.094,7.069-10.568,11.816-.475,2.827-1.418,5.655-2.209,6.161-2.207,1.414-1.891,9.09.316,10.5,1.26.81,1.418,1.215.158,1.215a2.725,2.725,0,0,1-2.365-1.215c-.475-.705-3.789-1.312-7.73-1.312-.846-.022-1.7-.057-2.523-.1a23.031,23.031,0,0,0,2.395,4.959,49.132,49.132,0,0,1,14.482,5.551c4.732,2.625,11.045,5.756,14.039,6.967,4.572,1.718,8.359,2.123,19.082,2.224,12.031.089,13.76.022,21.861-3.532,1.416-1.284,2.852-2.707,4.414-4.257.59-.584,1.205-1.192,1.836-1.815.508-.5.959-1.31-.607-2.754a24.633,24.633,0,0,1-4.469-1.682,22.723,22.723,0,0,1-4.879-3.834c-4.973-2.629-9.629-5.353-9.629-8.29,0-2.383,1.4-4.757,3.443-7.06a3.161,3.161,0,0,1,.33-.365,67.928,67.928,0,0,1,6.947-6.251c-.613-2.087,1.2-4.518,5.52-7.534a34.078,34.078,0,0,0,3.172-2.574,3.781,3.781,0,0,0-1.7-2.084,10.867,10.867,0,0,0-1.25-.732,31.5,31.5,0,0,0-3.221,1.047c-4.883,1.819-7.256,3.836-10.879,9.394a35.562,35.562,0,0,1-3.783,5.051c-2.682,2.828-3.158,13.736-.791,14.644.943.3,1.574,1.718,1.574,3.03,0,1.515,2.525,3.739,7.414,6.465,8.832,5.052,7.889,6.161-5.363,7.17-5.049.405-11.2,1.012-13.879,1.316-6.154.806-16.561-2.426-22.715-6.971-5.836-4.14-7.41-9.394-5.209-15.454.949-2.524,2.215-6.262,2.842-8.284,1.58-6.161,25.4-19.088,35.02-19.088,1.135,0,5-.454,9.324-1.1-.316-.055-.635-.109-.961-.162a107.39,107.39,0,0,0-16.537-1.266Q15257.209,3026.08,15256.3,3026.1Z" transform="matrix(0.996, -0.087, 0.087, 0.996, -14282.394, -1308.688)" fill="#ab651c"/>
  </g>
</svg>
